# xmcd CD database file
#
# Track frame offsets:
#	150
#	15427
#	31232
#	50537
#	72245
#	89147
#	108382
#	124535
#	140057
#	160027
#
# Disc length: 2310 seconds
#
# Revision: 3
# Processed by: cddbd v1.5.2PL0 Copyright (c) Steve Scherf et al.
# Submitted via: CDex 1.70beta2
#
DISCID=8209040a
DTITLE=Silverhead - 16 and Savaged
DYEAR=1973
DGENRE=Rock
TTITLE0=Hello New York (DesBarres)
TTITLE1=More Than Your Mouth Can Hold (DesBarres-Blunt)
TTITLE2=Only You (DesBarres-Davies)
TTITLE3=Bright Light (DesBarres)
TTITLE4=Heavy Hammer (DesBarres-Blunt-Davies)
TTITLE5=Cartoon Princess (DesBarres-Harrison)
TTITLE6=Rock Out Claudette Rock Out (DesBarres-Blunt-Davies)
TTITLE7=This Ain't A Parody (DesBarres-Blunt-Harrison)
TTITLE8=16 And Savaged (DesBarres-Blunt-Harrison-Davies-Thompson)
TTITLE9=Rolling With My Baby  7" Version
EXTD=YEAR: 1973
EXTT0=
EXTT1=
EXTT2=
EXTT3=
EXTT4=
EXTT5=
EXTT6=
EXTT7=
EXTT8=
EXTT9=
PLAYORDER=
